<svg xmlns="http://www.w3.org/2000/svg" xmlns:xlink="http://www.w3.org/1999/xlink" width="500" zoomAndPan="magnify" viewBox="0 0 375 374.999991" height="500" preserveAspectRatio="xMidYMid meet" version="1.0"><defs><g/><clipPath id="064f9d88cf"><path d="M 82.957031 82.957031 L 292.207031 82.957031 L 292.207031 292.207031 L 82.957031 292.207031 Z M 82.957031 82.957031 " clip-rule="nonzero"/></clipPath><clipPath id="d1e7463f0d"><path d="M 140.316406 122.386719 L 234.816406 122.386719 L 234.816406 272.359375 L 140.316406 272.359375 Z M 140.316406 122.386719 " clip-rule="nonzero"/></clipPath></defs><rect x="-37.5" width="450" fill="#ffffff" y="-37.499999" height="449.999989" fill-opacity="1"/><rect x="-37.5" width="450" fill="#ffffff" y="-37.499999" height="449.999989" fill-opacity="1"/><rect x="-37.5" width="450" fill="#ffffff" y="-37.499999" height="449.999989" fill-opacity="1"/><g clip-path="url(#064f9d88cf)"><path fill="#000000" d="M 187.582031 292.207031 C 129.894531 292.207031 82.957031 245.273438 82.957031 187.582031 C 82.957031 129.894531 129.894531 82.957031 187.582031 82.957031 C 245.273438 82.957031 292.207031 129.894531 292.207031 187.582031 C 292.207031 245.273438 245.273438 292.207031 187.582031 292.207031 Z M 187.582031 84.8125 C 130.914062 84.8125 84.8125 130.914062 84.8125 187.582031 C 84.8125 244.25 130.914062 290.351562 187.582031 290.351562 C 244.25 290.351562 290.351562 244.25 290.351562 187.582031 C 290.351562 130.914062 244.25 84.8125 187.582031 84.8125 Z M 187.582031 84.8125 " fill-opacity="1" fill-rule="nonzero"/></g><path fill="#ffffff" d="M 102.253906 111.285156 C 101.824219 110.777344 101.445312 110.238281 101.121094 109.660156 C 100.796875 109.078125 100.527344 108.476562 100.316406 107.84375 C 100.109375 107.214844 99.960938 106.570312 99.875 105.910156 C 99.785156 105.25 99.761719 104.585938 99.804688 103.921875 C 99.84375 103.257812 99.945312 102.601562 100.109375 101.957031 C 100.277344 101.3125 100.5 100.6875 100.785156 100.085938 C 101.070312 99.480469 101.40625 98.910156 101.800781 98.371094 C 102.195312 97.832031 102.632812 97.335938 103.121094 96.882812 C 105.53125 94.992188 108.003906 93.195312 110.546875 91.488281 C 113.085938 89.785156 115.6875 88.175781 118.347656 86.664062 C 121.007812 85.15625 123.71875 83.746094 126.484375 82.4375 C 129.25 81.128906 132.058594 79.925781 134.910156 78.828125 C 137.765625 77.730469 140.652344 76.742188 143.578125 75.863281 C 146.503906 74.980469 149.460938 74.210938 152.441406 73.550781 C 155.421875 72.890625 158.425781 72.34375 161.449219 71.910156 C 164.46875 71.476562 167.503906 71.152344 170.546875 70.945312 C 173.59375 70.738281 176.640625 70.648438 179.691406 70.667969 C 182.742188 70.6875 185.785156 70.824219 188.824219 71.074219 C 191.863281 71.324219 194.890625 71.6875 197.902344 72.164062 C 200.914062 72.640625 203.902344 73.230469 206.867188 73.933594 C 209.832031 74.632812 212.769531 75.445312 215.671875 76.367188 C 218.578125 77.289062 221.441406 78.320312 224.269531 79.457031 C 227.097656 80.59375 229.875 81.835938 232.609375 83.183594 C 235.339844 84.527344 238.019531 85.976562 240.644531 87.523438 C 243.265625 89.070312 245.828125 90.714844 248.328125 92.457031 C 250.828125 94.199219 253.261719 96.03125 255.625 97.953125 C 257.988281 99.878906 260.273438 101.886719 262.484375 103.984375 C 264.699219 106.078125 266.828125 108.253906 268.875 110.511719 C 270.925781 112.769531 272.886719 115.101562 274.761719 117.503906 C 276.632812 119.910156 278.414062 122.382812 280.105469 124.921875 C 281.792969 127.460938 283.386719 130.058594 284.878906 132.71875 C 286.375 135.378906 287.765625 138.089844 289.058594 140.855469 C 290.351562 143.621094 291.535156 146.429688 292.617188 149.285156 C 293.699219 152.140625 294.671875 155.035156 295.539062 157.964844 C 296.402344 160.894531 297.15625 163.851562 297.800781 166.835938 C 298.445312 169.824219 298.976562 172.832031 299.398438 175.859375 C 299.816406 178.886719 300.121094 181.929688 300.316406 184.980469 C 300.507812 188.03125 300.585938 191.089844 300.550781 194.148438 C 300.515625 197.207031 300.367188 200.261719 300.101562 203.308594 C 299.839844 206.359375 299.464844 209.394531 298.972656 212.414062 C 298.8125 213.0625 298.589844 213.6875 298.308594 214.292969 C 298.027344 214.894531 297.691406 215.46875 297.300781 216.007812 C 296.910156 216.550781 296.472656 217.046875 295.988281 217.503906 C 295.503906 217.960938 294.980469 218.367188 294.417969 218.726562 C 293.855469 219.082031 293.261719 219.382812 292.644531 219.625 C 292.023438 219.867188 291.390625 220.050781 290.734375 220.171875 C 290.082031 220.292969 289.421875 220.351562 288.757812 220.347656 C 288.097656 220.339844 287.4375 220.273438 286.789062 220.140625 L 266.621094 215.160156 C 265.921875 215.035156 265.246094 214.839844 264.585938 214.574219 C 263.929688 214.308594 263.304688 213.980469 262.714844 213.585938 C 262.125 213.191406 261.582031 212.742188 261.082031 212.238281 C 260.585938 211.730469 260.144531 211.179688 259.757812 210.582031 C 259.375 209.984375 259.054688 209.355469 258.800781 208.691406 C 258.542969 208.027344 258.359375 207.34375 258.242188 206.640625 C 258.128906 205.941406 258.085938 205.234375 258.113281 204.519531 C 258.144531 203.808594 258.246094 203.105469 258.417969 202.414062 C 258.644531 200.480469 258.800781 198.542969 258.890625 196.601562 C 258.976562 194.65625 258.996094 192.710938 258.945312 190.769531 C 258.894531 188.824219 258.769531 186.882812 258.578125 184.949219 C 258.390625 183.015625 258.128906 181.089844 257.796875 179.175781 C 257.46875 177.257812 257.070312 175.359375 256.605469 173.472656 C 256.136719 171.585938 255.605469 169.71875 255.003906 167.875 C 254.402344 166.027344 253.734375 164.203125 253.003906 162.40625 C 252.273438 160.609375 251.476562 158.839844 250.617188 157.101562 C 249.757812 155.359375 248.835938 153.65625 247.855469 151.984375 C 246.871094 150.308594 245.828125 148.675781 244.730469 147.078125 C 243.628906 145.480469 242.472656 143.925781 241.261719 142.414062 C 240.046875 140.902344 238.78125 139.4375 237.464844 138.015625 C 236.144531 136.59375 234.777344 135.222656 233.359375 133.902344 C 231.941406 132.582031 230.480469 131.3125 228.972656 130.097656 C 227.460938 128.882812 225.910156 127.726562 224.316406 126.621094 C 222.726562 125.519531 221.09375 124.476562 219.425781 123.492188 C 217.757812 122.507812 216.054688 121.585938 214.320312 120.726562 C 212.585938 119.863281 210.820312 119.066406 209.027344 118.335938 C 207.234375 117.601562 205.417969 116.933594 203.574219 116.332031 C 201.734375 115.730469 199.871094 115.195312 197.992188 114.730469 C 196.109375 114.261719 194.214844 113.863281 192.304688 113.535156 C 190.394531 113.207031 188.472656 112.945312 186.542969 112.753906 C 184.613281 112.5625 182.679688 112.445312 180.742188 112.390625 C 178.800781 112.339844 176.863281 112.359375 174.925781 112.449219 C 172.988281 112.539062 171.054688 112.699219 169.125 112.925781 C 167.199219 113.15625 165.28125 113.453125 163.375 113.820312 C 161.46875 114.1875 159.578125 114.625 157.699219 115.128906 C 155.824219 115.632812 153.96875 116.203125 152.132812 116.839844 C 150.296875 117.480469 148.484375 118.183594 146.699219 118.949219 C 144.914062 119.71875 143.15625 120.550781 141.429688 121.445312 C 139.703125 122.339844 138.011719 123.296875 136.351562 124.316406 C 134.695312 125.332031 133.074219 126.40625 131.492188 127.542969 C 130.96875 128.027344 130.40625 128.453125 129.796875 128.824219 C 129.1875 129.195312 128.546875 129.5 127.875 129.738281 C 127.207031 129.976562 126.519531 130.144531 125.8125 130.242188 C 125.109375 130.339844 124.402344 130.363281 123.695312 130.316406 C 122.984375 130.269531 122.289062 130.152344 121.605469 129.960938 C 120.921875 129.769531 120.265625 129.511719 119.636719 129.183594 C 119.003906 128.859375 118.414062 128.472656 117.863281 128.023438 C 117.316406 127.574219 116.816406 127.074219 116.367188 126.523438 Z M 102.253906 111.285156 " fill-opacity="1" fill-rule="nonzero"/><g fill="#000000" fill-opacity="1"><g transform="translate(121.052625, 118.804015)"><g><path d="M -8.390625 -15.75 L -8.5625 -16.09375 L -5.625 -17.875 L 6.515625 -9.828125 L 4.90625 -24.25 L 7.84375 -26.03125 C 7.863281 -26 7.898438 -25.953125 7.953125 -25.890625 C 8.003906 -25.828125 8.039062 -25.769531 8.0625 -25.71875 L 6.953125 -24.859375 C 6.828125 -24.765625 6.800781 -24.617188 6.875 -24.421875 L 15.578125 -10.03125 L 17.296875 -10.9375 C 17.304688 -10.925781 17.367188 -10.8125 17.484375 -10.59375 L 13.015625 -7.84375 L 12.859375 -8.1875 L 13.921875 -9.03125 C 14.054688 -9.144531 14.09375 -9.289062 14.03125 -9.46875 L 5.5 -23.53125 L 7.0625 -9.5 L 7.171875 -8.328125 L 6.671875 -8.015625 L -6.15625 -16.5 L 2.53125 -2.171875 L 5.125 -3.5625 C 5.132812 -3.550781 5.195312 -3.4375 5.3125 -3.21875 L 0.859375 -0.484375 L 0.703125 -0.828125 L 1.75 -1.65625 C 1.894531 -1.769531 1.921875 -1.925781 1.828125 -2.125 L -6.6875 -16.203125 C -6.820312 -16.359375 -6.972656 -16.394531 -7.140625 -16.3125 Z M -8.390625 -15.75 "/></g></g></g><g fill="#000000" fill-opacity="1"><g transform="translate(146.466876, 105.013756)"><g><path d="M 0.390625 -0.0625 L 0.3125 -0.4375 L 1.578125 -0.953125 C 1.691406 -1.003906 1.765625 -1.140625 1.796875 -1.359375 L 2.84375 -19.5625 L 4.484375 -19.984375 L 14.765625 -4.375 L 16.53125 -4.71875 C 16.53125 -4.695312 16.550781 -4.570312 16.59375 -4.34375 L 11.578125 -3 C 11.535156 -3.15625 11.507812 -3.273438 11.5 -3.359375 L 12.78125 -3.875 C 12.90625 -3.925781 12.945312 -4.039062 12.90625 -4.21875 L 10.4375 -7.953125 L 2.59375 -5.90625 L 2.40625 -1.203125 L 5.359375 -1.796875 C 5.359375 -1.773438 5.378906 -1.648438 5.421875 -1.421875 Z M 3.140625 -19.125 L 2.59375 -6.453125 L 10.125 -8.421875 Z M 3.140625 -19.125 "/></g></g></g><g fill="#000000" fill-opacity="1"><g transform="translate(171.000661, 99.629815)"><g><path d="M 1.484375 -17.796875 L 1.515625 -18.1875 L 5.078125 -18.125 L 14.890625 -0.484375 L 15.03125 -17.046875 C 14.96875 -17.210938 14.875 -17.304688 14.75 -17.328125 L 12.375 -17.578125 C 12.351562 -17.679688 12.34375 -17.8125 12.34375 -17.96875 L 17.296875 -17.90625 C 17.296875 -17.882812 17.300781 -17.753906 17.3125 -17.515625 L 15.65625 -17.359375 L 15.34375 0.265625 L 13.4375 0.234375 L 3.625 -17.40625 L 3.46875 -0.484375 L 6.421875 -0.28125 C 6.421875 -0.257812 6.410156 -0.128906 6.390625 0.109375 L 1.171875 0.046875 L 1.203125 -0.328125 L 2.5625 -0.46875 C 2.738281 -0.488281 2.84375 -0.601562 2.875 -0.8125 L 3.15625 -17.265625 C 3.132812 -17.472656 3.035156 -17.585938 2.859375 -17.609375 Z M 1.484375 -17.796875 "/></g></g></g><g fill="#000000" fill-opacity="1"><g transform="translate(196.844059, 101.237366)"><g><path d="M 6.171875 -16.75 L 6.296875 -17.125 L 12.375 -15.34375 C 14.625 -14.675781 16.234375 -13.488281 17.203125 -11.78125 C 18.171875 -10.082031 18.222656 -7.757812 17.359375 -4.8125 C 16.515625 -1.90625 15.40625 0.128906 14.03125 1.296875 C 12.832031 2.316406 11.304688 2.738281 9.453125 2.5625 C 8.617188 2.457031 7.679688 2.253906 6.640625 1.953125 L 6.15625 1.8125 L 1.140625 0.375 L 1.265625 0.015625 L 2.609375 0.21875 C 2.785156 0.25 2.921875 0.171875 3.015625 -0.015625 L 7.65625 -15.78125 C 7.664062 -16 7.59375 -16.144531 7.4375 -16.21875 Z M 12.15625 -15 L 9.484375 -15.78125 L 4.578125 0.9375 L 6.609375 1.53125 C 7.410156 1.769531 8.101562 1.925781 8.6875 2 C 9.28125 2.070312 9.925781 2.023438 10.625 1.859375 C 11.332031 1.691406 11.945312 1.363281 12.46875 0.875 C 13.738281 -0.289062 14.796875 -2.316406 15.640625 -5.203125 C 16.515625 -8.191406 16.546875 -10.484375 15.734375 -12.078125 C 14.992188 -13.546875 13.800781 -14.519531 12.15625 -15 Z M 12.15625 -15 "/></g></g></g><g fill="#000000" fill-opacity="1"><g transform="translate(219.701974, 108.940554)"><g><path d="M 0.3125 0.234375 L 0.53125 -0.078125 L 1.765625 0.484375 C 1.890625 0.523438 2.039062 0.476562 2.21875 0.34375 L 16.078125 -11.484375 L 17.53125 -10.609375 L 13.390625 7.625 L 14.859375 8.65625 C 14.847656 8.664062 14.769531 8.769531 14.625 8.96875 L 10.171875 6.28125 C 10.253906 6.144531 10.328125 6.039062 10.390625 5.96875 L 11.640625 6.53125 C 11.765625 6.582031 11.878906 6.53125 11.984375 6.375 L 12.96875 2.015625 L 6.046875 -2.21875 L 2.515625 0.90625 L 5.015625 2.625 C 5.003906 2.632812 4.925781 2.738281 4.78125 2.9375 Z M 15.96875 -10.984375 L 6.46875 -2.59375 L 13.09375 1.46875 Z M 15.96875 -10.984375 "/></g></g></g><g fill="#000000" fill-opacity="1"><g transform="translate(240.580001, 123.174513)"><g><path d="M 17.59375 -8 C 17.582031 -7.988281 17.492188 -7.898438 17.328125 -7.734375 L 15.984375 -8.890625 L 3.703125 3.0625 L 8.703125 8.203125 L 12.046875 5.65625 L 12.296875 6.109375 L 8.75 9.015625 L 4.546875 4.6875 L 0.890625 0.953125 L 1.171875 0.71875 L 2.234375 1.5625 C 2.367188 1.675781 2.519531 1.671875 2.6875 1.546875 L 14.484375 -9.921875 C 14.617188 -10.085938 14.628906 -10.242188 14.515625 -10.390625 L 13.671875 -11.4375 L 13.9375 -11.734375 Z M 17.59375 -8 "/></g></g></g><g fill="#000000" fill-opacity="1"><g transform="translate(254.913515, 138.979012)"><g><path d="M 0.15625 0.359375 L 0.5 0.1875 L 1.328125 1.28125 C 1.398438 1.375 1.550781 1.40625 1.78125 1.375 L 19.625 -2.375 L 20.46875 -0.90625 L 8.109375 13.09375 L 8.90625 14.71875 C 8.882812 14.726562 8.765625 14.78125 8.546875 14.875 L 5.921875 10.375 C 6.054688 10.300781 6.171875 10.25 6.265625 10.21875 L 7.09375 11.328125 C 7.175781 11.429688 7.300781 11.4375 7.46875 11.34375 L 10.421875 7.984375 L 6.375 0.953125 L 1.78125 2.015625 L 3.15625 4.703125 C 3.132812 4.710938 3.015625 4.765625 2.796875 4.859375 Z M 19.28125 -1.984375 L 6.90625 0.828125 L 10.78125 7.578125 Z M 19.28125 -1.984375 "/></g></g></g><g fill="#000000" fill-opacity="1"><g transform="translate(266.661563, 161.076833)"><g><path d="M 17.5625 -3.140625 L 17.953125 -3.203125 L 18.75 0.140625 L 7.328125 9.21875 L 21.578125 12.125 L 22.375 15.46875 C 22.332031 15.476562 22.269531 15.5 22.1875 15.53125 C 22.101562 15.5625 22.035156 15.582031 21.984375 15.59375 L 21.53125 14.28125 C 21.46875 14.113281 21.328125 14.035156 21.109375 14.046875 L 4.75 17.921875 L 5.09375 19.828125 C 5.070312 19.835938 4.941406 19.859375 4.703125 19.890625 L 3.46875 14.796875 L 3.828125 14.75 L 4.3125 16.015625 C 4.375 16.179688 4.503906 16.265625 4.703125 16.265625 L 20.6875 12.484375 L 6.859375 9.640625 L 5.71875 9.390625 L 5.578125 8.8125 L 17.578125 -0.796875 L 1.28125 3.0625 L 1.8125 5.96875 C 1.789062 5.976562 1.664062 6.003906 1.4375 6.046875 L 0.203125 0.953125 L 0.5625 0.90625 L 1.046875 2.171875 C 1.109375 2.335938 1.242188 2.410156 1.453125 2.390625 L 17.453125 -1.390625 C 17.660156 -1.472656 17.753906 -1.597656 17.734375 -1.765625 Z M 17.5625 -3.140625 "/></g></g></g><g fill="#000000" fill-opacity="1"><g transform="translate(271.969091, 189.500283)"><g><path d="M 8.96875 1.5625 C 11.832031 1.71875 14.066406 2.570312 15.671875 4.125 C 17.285156 5.6875 18.03125 7.554688 17.90625 9.734375 C 17.625 14.835938 14.359375 17.210938 8.109375 16.859375 C 5.242188 16.691406 3.019531 15.835938 1.4375 14.296875 C -0.132812 12.753906 -0.859375 10.878906 -0.734375 8.671875 C -0.441406 3.578125 2.789062 1.207031 8.96875 1.5625 Z M 8.921875 3.328125 C 3.054688 2.992188 0.0078125 4.785156 -0.21875 8.703125 C -0.3125 10.410156 0.382812 11.863281 1.875 13.0625 C 3.375 14.257812 5.5 14.9375 8.25 15.09375 C 14.113281 15.425781 17.15625 13.628906 17.375 9.703125 C 17.476562 8.023438 16.773438 6.582031 15.265625 5.375 C 13.765625 4.164062 11.648438 3.484375 8.921875 3.328125 Z M 8.921875 3.328125 "/></g></g></g><g clip-path="url(#d1e7463f0d)"><path stroke-linecap="butt" transform="matrix(0.00920359, 0, 0, -0.00918702, 140.278867, 272.309483)" fill="none" stroke-linejoin="miter" d="M 4477.536001 13857.531037 C 4716.063799 13888.995249 4954.591596 13920.034269 5073.855495 14036.1117 C 5193.119394 14152.614323 5193.119394 14353.304972 5221.555982 14538.688708 C 5249.568143 14724.072444 5306.441319 14893.298882 5309.412306 14931.140975 C 5312.383293 14968.983067 5262.300944 14874.590431 5193.119394 14858.858325 C 5124.362271 14843.126219 5036.08152 14906.054643 4863.764285 14971.959412 C 4691.022624 15037.86418 4433.395626 15106.745293 4235.61279 15094.414724 C 4037.829954 15081.658962 3899.891281 14987.691518 3890.129467 14937.518855 C 3880.79208 14887.346193 4000.055979 14880.968312 4097.674117 14943.896736 C 4194.867828 15006.399968 4269.991351 15138.209505 4317.102714 15323.593241 C 4364.214076 15508.976977 4383.313277 15747.509719 4332.806501 15938.846144 C 4282.724152 16130.182569 4163.460253 16274.747867 4056.504728 16287.503629 C 3949.97363 16299.834198 3855.750906 16180.780423 3717.812233 16168.024661 C 3579.449133 16155.694092 3397.370085 16249.661536 3275.135199 16224.575205 C 3152.475887 16199.488873 3089.660737 16054.923575 3067.59055 15879.319256 C 3045.944789 15703.289746 3064.619563 15496.221215 3133.801113 15345.703228 C 3202.558236 15194.760048 3322.246561 15100.792604 3388.032698 15138.209505 C 3453.818834 15176.051598 3466.551635 15345.703228 3391.003685 15518.331202 C 3315.880161 15690.959176 3152.475887 15866.563495 2976.763239 15907.381932 C 2801.050591 15948.200369 2612.605142 15854.232925 2489.94583 15825.745057 C 2367.710944 15797.682382 2311.262195 15835.099283 2307.866782 15738.155494 C 2304.895795 15640.786514 2354.978144 15408.20646 2458.538255 15241.956366 C 2562.098367 15075.706273 2719.13624 14974.935756 2763.276616 14974.935756 C 2806.992565 14974.935756 2738.235441 15075.706273 2559.12738 15125.878936 C 2380.019318 15176.051598 2091.409172 15176.051598 1981.48266 15248.334247 C 1871.556148 15320.616897 1940.737698 15464.757003 1947.104098 15339.325347 C 1953.046072 15213.893691 1896.597323 14818.039888 1925.033911 14604.593477 C 1953.046072 14391.147065 2066.367997 14359.682853 2235.714245 14271.668098 C 2405.484919 14184.078535 2631.279916 14039.513236 2781.95139 14099.040124 C 2932.622864 14158.992203 3008.170814 14422.611277 3136.7721 14475.760284 C 3265.373385 14529.334483 3447.452434 14372.438615 3670.700871 14268.691753 C 3893.524881 14164.944892 4157.093853 14114.77223 4323.469114 14158.992203 C 4489.844375 14202.786985 4559.025925 14340.974403 4552.659524 14271.668098 C 4546.293124 14202.786985 4464.8032 13926.41215 4342.568315 13835.42105 C 4219.909003 13744.42995 4056.929155 13838.397394 3843.018105 13829.043169 C 3629.531482 13819.688944 3365.96251 13706.587857 3146.109487 13706.587857 C 2926.256463 13706.587857 2750.543815 13819.688944 2672.024878 14008.049024 C 2593.505941 14196.409104 2612.605142 14460.028178 2628.30893 14604.593477 C 2644.012717 14749.158775 2656.321091 14774.245106 2775.58499 14755.111464 C 2895.273315 14736.403014 3121.068312 14673.899782 3368.933497 14661.14402 C 3617.223108 14648.81345 3887.158481 14686.230351 3984.352192 14661.14402 C 4081.97033 14636.057689 4006.422379 14548.042933 3868.483706 14535.712364 C 3730.120607 14522.956602 3529.366784 14585.885026 3441.51046 14720.670908 C 3353.22971 14855.881981 3378.695311 15062.950511 3548.041558 15260.664817 C 3717.812233 15458.379122 4031.463554 15647.164395 4320.498127 15650.140739 C 4609.108274 15653.117083 4873.101672 15471.134884 5030.139546 15402.253771 C 5186.752993 15332.947466 5237.259769 15376.742248 5227.922382 15358.033797 C 5218.160568 15339.325347 5149.403445 15257.688472 5051.785307 15113.123174 C 4954.591596 14968.983067 4828.961297 14761.489345 4678.289824 14620.325583 C 4527.61835 14479.161821 4351.905702 14403.902827 4276.357752 14447.697608 C 4201.234228 14491.49239 4226.275403 14654.766139 4439.762026 14613.947702 C 4653.248649 14573.129265 5055.180721 14328.218641 5278.004731 14275.069634 C 5500.828741 14221.495435 5544.969117 14359.682853 5525.869916 14318.864416 C 5507.195141 14278.045979 5425.705218 14058.221686 5287.342118 13910.680044 C 5149.403445 13763.138401 4954.591596 13687.879407 4678.289824 13644.084625 C 4401.988051 13599.864652 4044.196354 13587.534082 3758.557195 13493.141446 C 3472.918035 13399.174002 3259.431412 13223.144491 3118.097325 12915.305444 C 2976.763239 12607.891588 2907.581689 12168.243004 2913.948089 11838.719161 C 2920.31449 11509.195319 3001.804413 11289.371027 3096.027138 11355.275795 C 3190.249862 11421.180564 3296.78096 11772.814393 3243.727625 12136.778792 C 3190.249862 12501.168383 2976.763239 12877.888543 2932.622864 13166.593948 C 2888.906915 13455.299353 3014.537214 13656.415195 2954.693051 13612.620413 C 2894.848889 13568.40044 2650.379117 13279.695034 2537.057192 12912.329099 C 2424.159694 12544.963164 2442.834468 12099.361891 2505.649617 11782.168618 C 2568.464767 11464.975345 2675.420292 11276.615265 2666.082905 11370.582709 C 2656.321091 11464.975345 2530.690792 11841.695506 2238.685232 12165.266659 C 1947.104098 12488.412621 1488.723277 12758.409576 1284.574041 13028.40653 C 1080.424805 13298.403485 1130.507154 13568.40044 1158.943742 13399.174002 C 1186.955904 13229.522372 1193.322304 12620.222158 1300.277829 12218.415666 C 1406.808927 11816.609175 1613.92915 11621.871214 2022.227622 11443.290551 C 2430.526094 11264.284696 3039.578388 11100.585755 3347.287736 10617.567581 C 3654.997083 10133.699023 3660.939057 9330.086039 3770.865569 8931.255892 C 3880.79208 8532.850937 4094.278703 8538.803626 4125.686278 8504.363069 C 4157.093853 8469.922513 4006.422379 8394.663519 3768.743435 8396.789479 C 3531.488918 8399.340632 3206.802503 8479.70193 2849.85966 8788.391362 C 2493.341243 9097.505985 2103.717546 9634.948742 2024.349755 9748.900213 C 1944.981965 9862.426492 2175.021229 9552.461484 2433.072654 9316.905086 C 2691.548506 9081.773879 2977.612092 8921.476475 3137.620953 8754.801189 C 3297.629814 8588.551096 3332.008375 8416.348314 3323.944268 8486.930195 C 3315.880161 8557.937268 3265.373385 8871.729004 3157.144581 9150.2298 C 3048.491349 9429.155788 2881.691661 9672.365643 2453.869562 10004.86583 C 2026.471889 10336.940825 1338.476231 10758.306151 1158.943742 10856.950707 C 979.411254 10956.020456 1309.190789 10732.794627 1465.804236 10423.254812 C 1622.84211 10114.140188 1607.56275 9719.136769 1766.29833 9359.849483 C 1925.033911 9000.562197 2258.208859 8677.416236 2564.2205 8559.638036 C 2870.232141 8441.859837 3149.5049 8529.874593 3408.405179 8350.443546 C 3667.305457 8171.437691 3905.833255 7725.836417 3934.694269 7428.201979 C 3963.979711 7130.142349 3783.173943 6980.474746 3509.41873 6888.20807 C 3235.239091 6796.366586 2868.534434 6761.500837 2451.747428 6958.789951 C 2034.960422 7156.079064 1568.515494 7585.097847 1102.91942 7835.961159 C 637.747772 8086.39928 173.000551 8158.681929 60.103052 8169.736922 C -53.218873 8181.217108 185.733351 8130.619253 575.357049 8104.682538 C 965.405174 8078.320631 1506.549198 8076.19467 2013.739088 7909.519385 C 2520.928978 7742.844099 2994.164733 7411.619489 3418.166992 7012.789342 C 3841.744825 6613.959195 4216.089162 6147.948703 4393.923944 5456.586422 C 4571.758725 4765.224141 4552.659524 3848.510071 4298.427939 2972.614439 C 4044.196354 2096.718806 3554.407959 1261.216419 3388.032698 711.868285 C 3221.657437 162.52015 3378.695311 -101.098924 3340.921336 90.237501 C 3303.147361 281.999117 3070.985963 928.716232 3513.23857 1938.972554 C 3955.06675 2949.228876 5071.733362 4323.449596 5445.228845 5368.996859 C 5819.148756 6414.544121 5449.473112 7131.417925 5205.427768 7426.926403 C 4960.957996 7722.860073 4841.694098 7597.003225 4671.923423 7496.6579 C 4502.577175 7396.312575 4282.724152 7320.628389 4044.196354 7383.556813 C 3805.668557 7446.485237 3548.041558 7647.175887 3478.860009 7807.473292 C 3410.102885 7967.345504 3529.366784 8086.824472 3702.108445 8102.556578 C 3874.42568 8118.288684 4100.645104 8030.273928 4301.398926 7977.124922 C 4502.577175 7923.550723 4678.289824 7904.842272 4844.665084 7876.354405 C 5011.040345 7848.291729 5168.078219 7810.449636 5246.597156 7703.72643 C 5325.116093 7597.003225 5325.116093 7421.398906 5183.782007 7304.896283 C 5042.44792 7188.818852 4759.779747 7132.268309 4446.128426 7145.024071 C 4132.052679 7157.35464 3786.569356 7238.991515 3529.366784 7412.044681 C 3271.739786 7584.672655 3102.393538 7848.291729 3152.475887 8005.187597 C 3202.558236 8162.083465 3472.918035 8212.256128 3739.457994 8281.562433 C 4006.422379 8350.443546 4269.991351 8438.458301 4356.574395 8665.93605 C 4442.733013 8893.838991 4351.905702 9261.204926 4318.80042 9518.44612 C 4286.119566 9776.112505 4311.16074 9923.654148 4545.019844 10075.872903 C 4778.878948 10228.091659 5221.555982 10384.987527 5585.714078 10513.820719 C 5949.872175 10642.653912 6235.511335 10742.999237 6420.985797 10863.75378 C 6606.035832 10984.508324 6690.921169 11126.097278 6720.631037 11220.064722 C 6750.340905 11314.457358 6725.299731 11361.228484 6657.815888 11303.402365 C 6590.332044 11245.151053 6480.405533 11081.877304 6311.059285 10950.067767 C 6141.288611 10818.25823 5912.0982 10717.912906 5876.021932 10672.417356 C 5839.945663 10626.921806 5996.983537 10636.276031 6185.428986 10695.802919 C 6373.874434 10755.329806 6593.303031 10865.454548 6717.66005 10998.964854 C 6841.592643 11132.049967 6869.604804 11289.371027 6905.681072 11365.905597 C 6942.181767 11442.865359 6985.897716 11439.889014 6976.560329 11410.12557 C 6967.222942 11380.362127 6904.407792 11323.811583 6846.261336 11308.079477 C 6788.11488 11292.347371 6734.637118 11317.433703 6654.844901 11414.802683 C 6574.628257 11512.171664 6468.097159 11681.823293 6320.396672 11722.641731 C 6172.696185 11763.460168 5984.250737 11675.445412 5877.719638 11452.644776 C 5770.764114 11229.418947 5745.722939 10871.407237 5673.570402 10683.472349 C 5601.417866 10494.687077 5482.153967 10475.978626 5376.896149 10549.962044 C 5271.638331 10623.520269 5180.81102 10790.195555 5171.473633 11022.350417 C 5161.711819 11254.505278 5234.288782 11552.990101 5414.670124 11796.199956 C 5595.051466 12039.409811 5884.086039 12227.769891 6086.537568 12262.63564 C 6288.989097 12297.076196 6405.282009 12177.597229 6422.259077 12127.424567 C 6439.660571 12077.251904 6358.170647 12095.960354 6193.068666 12064.496142 C 6028.391112 12033.457122 5780.525927 11951.820248 5535.631729 11656.31177 C 5290.737532 11361.228484 5048.81432 10852.698787 4843.816231 10643.079104 C 4639.242568 10433.884613 4471.169601 10523.174945 4303.945486 11012.145807 C 4136.721372 11501.11667 3970.346111 12389.768064 4155.820573 12891.919881 C 4340.870608 13394.496889 4877.770366 13510.57432 5381.564842 13460.401658 C 5885.783745 13409.803803 6356.47294 13193.381047 6623.437326 13030.107298 C 6890.401711 12866.833549 6953.216861 12756.708807 6951.519154 12618.946582 C 6949.821448 12480.759164 6884.035311 12314.509071 6828.859842 12365.957309 C 6774.108799 12417.83074 6729.968424 12687.827694 6766.469119 12813.684543 C 6802.545387 12939.116199 6918.413873 12919.982556 6978.258036 12823.038768 C 7037.677772 12725.669787 7041.073185 12549.640277 7131.900496 12416.129972 C 7223.152233 12283.044859 7401.835868 12191.628567 7533.832568 12180.998765 C 7665.829267 12169.943772 7750.714604 12238.824885 7772.360365 12281.34409 C 7794.430553 12323.863296 7753.685591 12339.595402 7710.394069 12288.572355 C 7667.102547 12237.549309 7621.688892 12119.77111 7542.321101 12059.393838 C 7463.377738 11999.016566 7350.055813 11995.61503 7263.897195 12008.370791 C 7177.314151 12020.701361 7117.894415 12049.189228 7152.272977 12056.842685 C 7187.075965 12064.496142 7315.677251 12052.165573 7395.045041 12069.598447 C 7473.988405 12086.606129 7504.1227 12133.802447 7510.4891 12116.369573 C 7516.431073 12099.361891 7499.454006 12017.725016 7561.420302 11950.11948 C 7623.386598 11882.513943 7764.720685 11829.364936 7957.834827 11805.554181 C 8150.948969 11782.168618 8395.41874 11788.546499 8540.14824 11741.350181 C 8684.453314 11694.153863 8728.593689 11593.808538 8728.593689 11491.762445 C 8728.593689 11389.716352 8684.453314 11285.96949 8675.115927 11220.064722 C 8665.778539 11154.159954 8690.819714 11126.097278 8668.749526 11105.688059 C 8646.679339 11085.278841 8577.922215 11072.523079 8533.78184 11099.310179 C 8489.641465 11126.097278 8470.966691 11192.002046 8439.559116 11187.324934 C 8408.151541 11182.647821 8364.435592 11106.963635 8373.772979 11008.319079 C 8383.110367 10909.24933 8445.925516 10786.794018 8423.855328 10708.55868 C 8401.785141 10629.89815 8295.254042 10595.457594 8175.990144 10634.575263 C 8056.726245 10673.692932 7924.729546 10786.794018 7891.624264 10910.950098 C 7858.943409 11035.106178 7924.729546 11169.89206 8004.946189 11243.875477 C 8084.738406 11317.433703 8178.96113 11330.189464 8259.177774 11408.424802 C 8338.969991 11487.085332 8405.180554 11631.225439 8472.664397 11667.366763 C 8540.14824 11703.508088 8609.32979 11631.225439 8629.702271 11509.195319 C 8650.074752 11386.314815 8621.638164 11213.686841 8668.749526 11097.60941 C 8715.860888 10981.531979 8838.520201 10922.005092 8948.022286 10907.973754 C 9057.948797 10893.517224 9155.566935 10924.981436 9232.388165 10896.918761 C 9309.209396 10868.430893 9365.658145 10780.416138 9390.699319 10661.362362 C 9416.16492 10541.883395 9409.79852 10391.365408 9390.699319 10331.413328 C 9372.024545 10271.88644 9340.61697 10303.350652 9304.540702 10341.192745 C 9268.464434 10378.609646 9227.719472 10422.82962 9183.579096 10356.924851 C 9139.863148 10290.594891 9092.751786 10114.990572 9020.599249 9958.094704 C 8948.022286 9801.198836 8850.828575 9663.011418 8792.682119 9597.10665 C 8734.535663 9531.201881 8715.860888 9537.15457 8723.924995 9643.877776 C 8731.564676 9751.026173 8765.943237 9958.094704 8811.781319 10151.131897 C 8857.194975 10344.16909 8913.643724 10523.174945 8943.353592 10640.953144 C 8973.487887 10758.731343 8976.458874 10815.281886 9014.232849 10822.935343 C 9052.006824 10831.013992 9124.15936 10790.195555 9171.270723 10790.195555 C 9218.382085 10790.195555 9240.027846 10831.013992 9263.79574 10744.700005 C 9287.139208 10658.386018 9312.180382 10444.514414 9378.390945 10353.523315 C 9444.177082 10262.532215 9551.132607 10293.996427 9629.651544 10234.469539 C 9708.170481 10174.51746 9758.252829 10023.999472 9679.733893 9893.890704 C 9601.214956 9763.356743 9394.094733 9653.657193 9197.585177 9586.051656 C 9001.500048 9518.44612 8816.450013 9493.359788 8762.972251 9507.391126 C 8709.494488 9521.847656 8788.013425 9574.996663 8886.904843 9689.798518 C 8985.796261 9804.17518 9105.06016 9980.204691 9228.992752 10086.927897 C 9353.349771 10193.651102 9481.951057 10231.068003 9554.103593 10160.486122 C 9626.25613 10089.904241 9641.959917 9910.898386 9675.065199 9768.033856 C 9708.170481 9625.169325 9758.252829 9518.44612 9871.999181 9397.691576 C 9985.745533 9276.937032 10163.155888 9141.725959 10203.90085 8989.507204 C 10245.070238 8837.288448 10149.149807 8667.636818 10101.189592 8625.117613 C 10053.229376 8583.023599 10053.229376 8667.636818 10028.188202 8802.847892 C 10003.147027 8937.633773 9953.064678 9123.017509 9907.226596 9116.639628 C 9861.812941 9110.261747 9821.067979 8912.547442 9662.332398 8645.526831 C 9504.021244 8378.931413 9227.719472 8043.02969 8670.447233 7730.51353 C 8113.174994 7417.99737 7274.932289 7129.291965 6578.023671 7237.715939 C 5880.690625 7345.714721 5325.116093 7851.268073 5077.250908 8331.735095 C 4828.961297 8812.202117 4888.80546 9267.157615 5172.746913 9567.343206 C 5457.112793 9867.103604 5965.575962 10011.243711 6540.249695 9888.788399 C 7114.499002 9766.333087 7754.958871 9377.282357 8119.541394 8976.751442 C 8483.699491 8576.645719 8571.555815 8165.485002 8543.119227 7816.827517 C 8515.107066 7468.170032 8370.377566 7182.440972 8260.451054 6845.263672 C 8150.948969 6507.661181 8075.401019 6118.185259 7999.853069 5729.134529 " stroke="#231f20" stroke-width="50.459999" stroke-opacity="1" stroke-miterlimit="22.926001"/></g></svg>